<?xml version="1.0" encoding="utf-8" ?>
<svg xmlns="http://www.w3.org/2000/svg" xmlns:xlink="http://www.w3.org/1999/xlink" width="923" height="923">
	<path fill="#FEFEFE" transform="scale(0.901367 0.901367)" d="M0 0L268.749 0L290.401 0L732.784 0L756.227 0L1024 0L1024 1024L575.746 1024L568.272 1024L455.142 1024L447.175 1024L0 1024L0 0Z"/>
	<path transform="scale(0.901367 0.901367)" d="M268.749 0L290.401 0L732.784 0L756.227 0L756.043 0.540031C760.539 0.774427 772.299 -0.260031 775.116 3.74159C779.775 10.3611 767.823 60.2085 765.013 69.5417C753.266 108.561 733.144 136.567 706.312 166.622C759.533 153.682 788.893 151.821 843.349 158.928C852.113 160.072 864.297 160.045 871.903 164.778C874.196 166.205 875.63 167.892 876.136 170.58C877.454 177.58 874.725 186.348 873.253 193.248C866.578 224.536 856.964 253.822 838.095 280.039C827.528 294.722 814.775 307.82 801.369 319.916C795.097 325.576 788.351 330.916 782.312 336.804C830.849 323.418 871.82 317.515 921.714 328.037C937.707 331.41 953.11 335.949 968.062 342.587C943.489 425.292 911.722 477.015 834.405 518.929C799.419 537.895 758.889 552.099 719.039 555.28C702.569 556.595 685.865 556.04 669.346 556.012C653.84 568.431 640.373 584.079 627.255 598.925C594.016 636.542 559.606 677.934 553.808 729.765C550.894 755.814 552.397 782.305 552.963 808.449C554.052 858.758 556.012 908.909 563.387 958.761C566.632 980.693 572.314 1002.16 575.746 1024L568.272 1024Q561.365 993.359 556.606 962.312C548.641 909.982 547.168 857.526 545.422 804.72C544.612 780.228 543.272 755.49 546.049 731.077C551.99 678.829 583.001 635.91 617.82 598.35C632.392 582.631 648.866 568.141 662.499 551.667C671.577 540.697 678.102 527.825 686.579 516.403C719.107 472.575 763.862 437.635 809.882 408.962C817.664 404.113 832.626 394.411 841.466 393.388C843.137 393.194 844.168 393.304 845.476 394.366C846.089 400.415 830.908 407.199 826.468 409.402C776.948 433.967 734.166 471.034 699.101 513.536C690.048 524.508 680.84 535.685 674.385 548.431C733.034 550.43 782.86 539.517 834.303 510.665C882.698 483.523 922.798 443.502 944.581 391.993C950.742 377.425 955.009 362.106 959.288 346.906C955.22 344.794 950.829 343.141 946.495 341.666C933.11 337.113 919.127 334.4 905.134 332.547Q900.985 331.958 896.82 331.501Q892.654 331.044 888.477 330.719Q884.299 330.395 880.113 330.202Q875.927 330.01 871.737 329.95Q867.547 329.89 863.357 329.963Q859.168 330.036 854.982 330.242Q850.797 330.447 846.62 330.785Q842.444 331.123 838.28 331.594Q834.116 332.064 829.969 332.665Q825.822 333.267 821.696 334Q817.57 334.733 813.47 335.596Q809.369 336.459 805.298 337.451Q801.227 338.444 797.189 339.564Q793.152 340.685 789.151 341.934Q785.151 343.182 781.193 344.556Q777.234 345.93 773.321 347.429C755.539 354.323 739.259 364.163 721.81 371.714C702.986 379.862 680.84 383.764 665.446 398.203C658.229 404.972 652.084 413.242 645.809 420.886Q635.583 433.13 626.111 445.966Q616.64 458.803 607.957 472.186Q599.274 485.568 591.412 499.449Q583.55 513.33 576.537 527.658C571.159 538.683 565.83 549.866 561.268 561.258C557.493 570.685 554.387 580.44 549.943 589.583C548.583 592.382 545.908 598.457 543.077 599.861C542.68 599.782 542.477 599.775 542.105 599.517C539.679 597.831 538.331 592.809 537.505 590.043C531.15 568.776 529.43 544.9 527.219 522.843C525.721 507.903 524.257 492.793 523.669 477.79C519.876 380.921 534.729 271.183 580.767 185.08C597.547 153.699 619.073 126.416 643.498 100.659C649.704 94.1142 658.463 83.5945 667.375 81.2073C668.838 80.8156 669.963 80.7484 671.288 81.49C672.044 85.8836 663.125 94.0011 660.181 96.9046C652.839 104.146 644.843 110.739 637.795 118.276C604.562 153.816 580.043 197.37 564.489 243.342C607.157 230.038 653.201 202.688 686.964 173.493C738.406 129.012 763.749 76.0858 768.575 8.61087C688.152 7.12948 604.414 21.8364 544.013 79.1921C538.233 84.6802 532.198 90.475 527.234 96.709C523.466 101.441 520.216 106.803 516.046 111.176C514.672 112.616 513.377 113.955 511.365 114.351C505.379 112.318 498.008 99.3246 493.819 94.0893C490.858 90.3898 487.646 86.7696 484.27 83.4394C422.148 22.1628 341.157 8.52341 257.26 9.00666C257.797 38.2561 263.004 66.8584 274.857 93.7139C307.567 167.83 382.58 214.823 455.372 243.026C443.329 196.874 420.245 152.871 387.267 118.186C381.702 112.333 376.026 106.719 369.971 101.374C365.245 97.2019 359.661 93.0967 355.557 88.3299C353.805 86.2948 351.205 83.2564 351.391 80.4545C351.915 79.7735 352.104 79.2426 352.967 78.9726C354.641 78.449 356.333 79.2059 357.793 80.011C366.263 84.681 374.619 94.8912 381.471 101.859C420.776 141.829 444.854 179.296 461.19 233.183C462.503 237.513 465.985 246.982 463.506 251.165C462.915 252.161 462.034 252.748 460.877 252.95C451.37 254.608 399.599 225.981 388.779 219.652Q374.435 211.195 360.634 201.878C351.348 195.579 343.297 187.517 333.792 181.548C322.192 174.263 308.853 170.997 295.603 168.173C246.592 157.73 200.639 161.867 152.188 172.844C156.798 197.004 161.682 220.846 172.254 243.235C197.593 296.897 246.585 337.824 299.422 362.939C316.381 371 334.156 377.152 351.816 383.464C350.765 373.622 347.825 363.362 344.712 353.981Q343.408 350.101 341.958 346.274Q340.508 342.447 338.913 338.677Q337.319 334.908 335.582 331.201Q333.845 327.495 331.969 323.858Q330.093 320.22 328.08 316.656Q326.067 313.093 323.92 309.608Q321.773 306.124 319.495 302.723Q317.217 299.323 314.812 296.011Q312.407 292.699 309.877 289.482Q307.348 286.264 304.698 283.145Q302.048 280.025 299.282 277.009Q296.516 273.992 293.637 271.083Q290.758 268.174 287.77 265.376Q284.783 262.579 281.691 259.896Q278.6 257.214 275.409 254.651Q272.217 252.089 268.931 249.649C258.959 242.137 241.707 235.601 234.11 226.172C233.16 224.993 232.828 224.095 233.041 222.61C233.803 222.021 233.851 221.877 234.873 221.709C243.546 220.282 258.99 232.209 265.847 237.381C316.922 275.901 351.684 323.541 360.686 387.892C381.738 405.513 402.908 423.187 422.424 442.517C436.764 456.721 449.924 471.918 463.204 487.1C452.778 426.559 436.057 367.352 403.148 314.882C398.865 308.054 394.121 301.303 389.016 295.067C383.517 288.349 373.773 279.977 370.487 272.206C369.972 270.99 369.564 269.884 370.047 268.595C371.137 267.821 371.982 267.665 373.315 267.919C383.193 269.802 397.004 291.827 402.613 300.281Q407.935 308.39 412.884 316.732Q417.833 325.075 422.398 333.633Q426.963 342.191 431.136 350.947Q435.308 359.703 439.079 368.64Q442.85 377.577 446.212 386.675Q449.574 395.773 452.52 405.015Q455.466 414.256 457.989 423.622Q460.513 432.988 462.609 442.458C482.669 530.278 480.562 621.175 480.538 710.674C480.519 779.648 480.628 852.388 473.185 920.939C469.409 955.706 462.084 989.779 455.142 1024L447.175 1024C452.922 999.27 458.524 974.423 462.235 949.294C468.933 903.952 470.635 858.552 472.014 812.815C472.755 788.23 474.348 763.449 472.988 738.87C468.874 664.552 408.842 606.777 356.672 560.054C293.345 559.012 231.257 544.666 176.987 511.124C128.636 481.241 89.28 437.483 69.1808 383.943C64.1322 370.494 60.7182 356.462 57.4104 342.507C69.4869 336.279 82.5824 333.014 95.742 329.958Q102.033 328.465 108.392 327.298Q114.752 326.131 121.162 325.292Q127.573 324.453 134.019 323.945Q140.465 323.437 146.928 323.261Q153.391 323.086 159.855 323.242Q166.318 323.399 172.765 323.888Q179.212 324.377 185.626 325.197Q192.039 326.016 198.402 327.165C213.526 329.919 228.39 333.979 243.295 337.703L229.082 326.181C190.348 294.288 161.613 251.895 150.448 202.666C147.81 191.031 146.484 179.159 145.33 167.3C190.472 153.793 237.208 150.264 283.687 158.802C294.995 160.879 306.083 163.872 317.203 166.763C310.204 155.979 298.258 145.778 290.282 134.911C260.835 94.7862 252.151 50.7516 249.998 2.03307C256.225 2.02382 262.875 2.36421 268.749 0Z"/>
	<path fill="#AD978F" transform="scale(0.901367 0.901367)" d="M732.784 0L756.227 0L756.043 0.540031C748.36 0.69851 740.634 0.505956 732.947 0.485453L732.784 0Z"/>
	<path fill="#FEFEFE" transform="scale(0.901367 0.901367)" d="M290.401 0L732.784 0L732.947 0.485453C728.344 0.636736 723.702 1.08305 719.106 1.4277C631.297 8.01226 569.024 36.6565 511.378 103.629C468.79 46.8119 409.462 17.9027 340.5 5.55923Q325.821 3.0791 310.99 1.79251C304.428 1.28475 297.284 1.56676 290.869 0.112818C290.713 0.0773506 290.557 0.0376059 290.401 0Z"/>
	<path fill="#FEFEFE" transform="scale(0.901367 0.901367)" d="M786.971 160.71C812.18 158.391 843.832 166.104 868.497 171.3C868.57 193.153 862.789 215.226 854.344 235.279C820.677 315.227 750.653 351.431 674.186 382.484C681.659 328.542 714.939 281.074 758.2 249.362C762.043 246.545 766.177 244.001 770.357 241.718C776.307 238.468 790.418 233.664 792.661 226.867C793.068 225.633 792.896 224.971 792.313 223.875C791.652 223.568 791.572 223.49 790.767 223.335C782.777 221.798 760.711 237.713 753.797 242.745C716.46 269.92 686.138 307.529 672.872 352.215C669.448 363.749 667.609 375.494 665.752 387.36C646.737 407.516 629.032 428.372 612.844 450.888Q594.527 478.323 578.984 507.42C566.313 531.292 555.343 555.911 544.44 580.622C540.234 566.197 538.222 550.679 536.408 535.795C531.126 492.455 530.647 449.368 532.592 405.826C533.188 392.492 532.326 376.805 537.536 364.361C540.42 357.472 545.498 351.126 549.73 345.003C560.587 329.296 571.517 313.381 584.834 299.616C589.939 294.339 610.813 278.694 611.552 272.161C611.643 271.356 611.284 271.284 610.78 270.757C609.701 270.556 608.871 270.511 607.783 270.721C599.999 272.23 594.265 279.319 588.918 284.697C569.794 303.934 554.372 325.373 539.056 347.667C544.554 315.747 550.392 284.738 560.861 253.983C590.372 241.445 620.292 228.928 647.927 212.565C661.696 204.411 673.626 193.342 686.949 184.492C716.726 164.712 752.448 162.976 786.971 160.71Z"/>
	<path fill="#FEFEFE" transform="scale(0.901367 0.901367)" d="M146.549 330.706C149.506 330.358 152.68 330.469 155.653 330.552C190.756 331.528 236.25 339.819 268.183 354.841C282.753 361.694 296.155 370.481 311.086 376.808C325.371 382.86 344.342 386.747 356.874 395.087C366.949 401.791 375.723 410.658 384.696 418.747C403.781 435.949 422.394 453.25 440.09 471.908C448.661 480.944 461.409 493.956 465.417 505.7C470.163 519.603 468.993 538.28 469.726 553.077C472.104 601.081 473.912 649.348 472.647 697.413C468.544 688.245 465.098 678.948 460.526 669.963C444.264 637.999 420.841 612.021 395.7 586.832C385.818 576.931 374.313 568.617 365.305 557.851C357.349 548.341 352.511 536.63 345.369 526.526C329.954 504.721 311.588 485.262 292.694 466.476Q284.107 458.659 275.184 451.228C262.13 440.405 197.246 391.565 181.846 394.052C180.595 394.254 180.124 394.539 179.438 395.569C179.51 396.754 179.871 397.444 180.606 398.344C186.173 405.162 200.051 410.191 207.955 414.267Q215.732 418.33 223.216 422.91C262.47 446.865 297.951 479.576 326.995 515.1C336.445 526.658 345.774 538.675 351.652 552.506Q346.308 552.495 340.968 552.313Q335.628 552.131 330.296 551.779Q324.964 551.427 319.646 550.904Q314.328 550.382 309.029 549.69Q303.731 548.998 298.457 548.136Q293.183 547.275 287.94 546.246Q282.696 545.217 277.488 544.021Q272.28 542.825 267.113 541.463Q261.946 540.101 256.825 538.574Q251.704 537.048 246.635 535.359Q241.565 533.67 236.552 531.819Q231.539 529.969 226.588 527.959Q221.637 525.95 216.752 523.783Q211.868 521.616 207.055 519.295Q202.242 516.973 197.506 514.499Q192.77 512.024 188.115 509.4C121.194 470.942 85.5235 420.686 65.6275 346.823C91.7709 337.699 119.062 333.252 146.549 330.706Z"/>
	<path fill="#FEFEFE" transform="scale(0.901367 0.901367)" d="M756.227 0L1024 0L1024 1024L575.746 1024C572.314 1002.16 566.632 980.693 563.387 958.761C556.012 908.909 554.052 858.758 552.963 808.449C552.397 782.305 550.894 755.814 553.808 729.765C559.606 677.934 594.016 636.542 627.255 598.925C640.373 584.079 653.84 568.431 669.346 556.012C685.865 556.04 702.569 556.595 719.039 555.28C758.889 552.099 799.419 537.895 834.405 518.929C911.722 477.015 943.489 425.292 968.062 342.587C953.11 335.949 937.707 331.41 921.714 328.037C871.82 317.515 830.849 323.418 782.312 336.804C788.351 330.916 795.097 325.576 801.369 319.916C814.775 307.82 827.528 294.722 838.095 280.039C856.964 253.822 866.578 224.536 873.253 193.248C874.725 186.348 877.454 177.58 876.136 170.58C875.63 167.892 874.196 166.205 871.903 164.778C864.297 160.045 852.113 160.072 843.349 158.928C788.893 151.821 759.533 153.682 706.312 166.622C733.144 136.567 753.266 108.561 765.013 69.5417C767.823 60.2085 779.775 10.3611 775.116 3.74159C772.299 -0.260031 760.539 0.774427 756.043 0.540031L756.227 0Z"/>
	<path fill="#FEFEFE" transform="scale(0.901367 0.901367)" d="M0 0L268.749 0C262.875 2.36421 256.225 2.02382 249.998 2.03307C252.151 50.7516 260.835 94.7862 290.282 134.911C298.258 145.778 310.204 155.979 317.203 166.763C306.083 163.872 294.995 160.879 283.687 158.802C237.208 150.264 190.472 153.793 145.33 167.3C146.484 179.159 147.81 191.031 150.448 202.666C161.613 251.895 190.348 294.288 229.082 326.181L243.295 337.703C228.39 333.979 213.526 329.919 198.402 327.165Q192.039 326.016 185.626 325.197Q179.212 324.377 172.765 323.888Q166.318 323.399 159.855 323.242Q153.391 323.086 146.928 323.261Q140.465 323.437 134.019 323.945Q127.573 324.453 121.162 325.292Q114.752 326.131 108.392 327.298Q102.033 328.465 95.742 329.958C82.5824 333.014 69.4869 336.279 57.4104 342.507C60.7182 356.462 64.1322 370.494 69.1808 383.943C89.28 437.483 128.636 481.241 176.987 511.124C231.257 544.666 293.345 559.012 356.672 560.054C408.842 606.777 468.874 664.552 472.988 738.87C474.348 763.449 472.755 788.23 472.014 812.815C470.635 858.552 468.933 903.952 462.235 949.294C458.524 974.423 452.922 999.27 447.175 1024L0 1024L0 0Z"/>
</svg>
